<?xml version="1.0" encoding="utf-8"?>
<svg viewBox="0 0 128 128" width="256" height="256" xmlns="http://www.w3.org/2000/svg">
  <path d="M78.007,16.675c3.657,5.283,1.128,13.333-10.139,17.691a3.147,3.147,0,0,1-2.28,0c-11.267-4.358-13.8-12.408-10.139-17.691,2.339-3.372,9.071-4.108,11.279.083C68.936,12.567,75.68,13.3,78.007,16.675Z" class="colorff8878 svgShape" style="fill: rgb(242, 82, 82);"/>
  <path d="M119.791,108.414a19.5,19.5,0,0,0-11.029-9.884c-.2-.079-.409-.17-.624-.249a16.726,16.726,0,0,1-3.257-1.941,12.948,12.948,0,0,1-1.6-1.429,6.329,6.329,0,0,1-1.94-4.142c0-.306.011-1.282.011-1.282l-9.429.147s-.034.8-.034,1.135a6.441,6.441,0,0,1-1.963,4.13,13.657,13.657,0,0,1-1.578,1.441,17.338,17.338,0,0,1-3.256,1.941c-.216.079-.42.17-.624.249a19.5,19.5,0,0,0-11.03,9.884c-1.055,1.94.284,4.051,2.451,4.5a69.115,69.115,0,0,0,9.169,1.1c5.469.352,10.7.352,11.551.352s6.093,0,11.563-.352a69.12,69.12,0,0,0,9.168-1.1C119.5,112.465,120.835,110.354,119.791,108.414Z" class="colorfcf0d7 svgShape" style="fill: rgb(255, 245, 235);"/>
  <path d="M103.281,94.911A8.84,8.84,0,0,1,89.926,94.9a6.441,6.441,0,0,0,1.963-4.13c0-.34.034-1.135.034-1.135l.034-.124a17.716,17.716,0,0,0,4.652.612,17.471,17.471,0,0,0,4.743-.635s-.011.976-.011,1.282A6.329,6.329,0,0,0,103.281,94.911Z" class="colorfca781 svgShape" style="fill: rgb(236, 208, 177);"/>
  <path d="M119.791,108.414c1.044,1.94-.3,4.051-2.451,4.5a69.12,69.12,0,0,1-9.168,1.1v-.011a80.3,80.3,0,0,0-.035-15.727c.216.079.42.17.625.249A19.5,19.5,0,0,1,119.791,108.414Z" class="color26918e svgShape" style="fill: rgb(190, 162, 136);"/>
  <path d="M105.4,62.229a7.66,7.66,0,0,0-2.823-.175c-3.14.324-6.914-1.09-9.377-5.518a4.423,4.423,0,0,0-7.375-.658c-1.26,1.566-2.292,5.367-2.553,7.319-.409,3.075-2.826,6.365-5.912,7.2a2.676,2.676,0,0,0-.533.113h-.012a5.773,5.773,0,0,1-4.141-.862c-4.777-2.927-4.993-11.71.419-16.555A27.931,27.931,0,0,0,79.2,45.246c2.451-4.6,7.24-9.452,18.155-9.43a16.241,16.241,0,0,1,3.472.636c-1.146-1.646-1.883-3.461.012-4.1,1.089-.364,3.177,1.758,3.9,3.846a3.331,3.331,0,0,1,4.9-.215c.715.873.386,2.553-1.872,2.78l.045.351a21.986,21.986,0,0,1,4.38,4.494c1.419,1.906,2.61,4.243,4.675,5.344,8.522,4.539,11.154,17.282,3.189,21.117a5.2,5.2,0,0,1-3.938.318,10.519,10.519,0,0,1-5.129-4.45,8.467,8.467,0,0,0-4.831-3.5Z" class="color934463 svgShape" style="fill: rgb(225, 190, 160);"/>
  <path d="M77.523,70.4c3.087-.839,5.5-4.13,5.912-7.2.261-1.952,1.294-5.753,2.553-7.319a4.425,4.425,0,0,1,7.376.658c2.814,5.061,7.341,6.184,10.677,5.277l1.482-.737a2.836,2.836,0,0,1,1.641-.271h0a2.839,2.839,0,0,1,2.283,1.818l.279.744c1.362,2.95,3.711,6.128,6.559,7.024l-.046.125c1.714.488,2.531,1.861,2.326,4.527-.306,4.062-4.414,5.935-6.5,5.265l-.035-.022a17.057,17.057,0,0,1-10.677,9.2,17.471,17.471,0,0,1-4.743.635,17.716,17.716,0,0,1-4.652-.612A17.045,17.045,0,0,1,81.2,80.285l-.034.022c-2.1.67-6.2-1.2-6.513-5.265-.205-2.666.624-4.039,2.326-4.527h.011A3.965,3.965,0,0,0,77.523,70.4Z" class="colorffb38d svgShape" style="fill: rgb(248, 221, 192);"/>
  <path d="M104.881 96.34c.386 4.607-4.414 8.953-8.272 1.612a8.826 8.826 0 0 0 6.672-3.041A12.948 12.948 0 0 0 104.881 96.34zM89.926 94.9a8.854 8.854 0 0 0 6.683 3.053c-3.847 7.341-8.646 3-8.261-1.612A13.657 13.657 0 0 0 89.926 94.9z" class="colorff746a svgShape" style="fill: rgb(255, 222, 186);"/>
  <path d="M84.468,98.53c.2-.079.408-.17.624-.249a80.344,80.344,0,0,0-.034,15.727v.011a69.115,69.115,0,0,1-9.169-1.1c-2.167-.453-3.506-2.564-2.451-4.5A19.5,19.5,0,0,1,84.468,98.53Z" class="color26918e svgShape" style="fill: rgb(190, 162, 136);"/>
  <path d="M47.7,82.905A16.286,16.286,0,0,1,37.447,92a14.412,14.412,0,0,1-3.885.519,14.262,14.262,0,0,1-4.031-.561,16.227,16.227,0,0,1-10.107-9.048c-1.88.6-5.516-1.028-5.931-4.581a1.932,1.932,0,0,1-.032-.239c-.176-2.191.416-3.428,1.673-3.978,2.384.92,2.654-8,4.29-14.01C21.026,54.215,29,52,35.084,52.306c11.978.6,12.494,8.671,13.19,9.065,1.8,3.221,1.067,13.37,4.505,13.266.7.675,1.008,1.786.883,3.448C53.371,81.8,49.621,83.518,47.7,82.905Z" class="colorffb38d svgShape" style="fill: rgb(248, 221, 192);"/>
  <path d="M52.893,108.719a17.243,17.243,0,0,0-1.121-1.8c-2.244-3.2-5.475-5.516-9.921-7.251a5.365,5.365,0,0,1-1.309-.727,8.63,8.63,0,0,1-3.095-6.939V92a14.412,14.412,0,0,1-3.885.519,14.262,14.262,0,0,1-4.031-.561v.01c-.01,2.649-.935,5.464-2.96,6.971a5.084,5.084,0,0,1-1.309.737,20.907,20.907,0,0,0-9.536,6.742,16.538,16.538,0,0,0-1.506,2.306c-.966,1.776.27,3.708,2.244,4.124,1.049.218,2.2.405,3.386.561a117.55,117.55,0,0,0,13.7.769,121.63,121.63,0,0,0,12.684-.645c1.548-.176,3.054-.394,4.415-.685C52.623,112.427,53.849,110.5,52.893,108.719Z" class="colorfca781 svgShape" style="fill: rgb(248, 221, 192);"/>
  <path d="M46.453,113.4l-.218.124a121.63,121.63,0,0,1-12.684.645,117.55,117.55,0,0,1-13.7-.769c.675-5.973,6.794-7.053,10.949-2.493a3.181,3.181,0,0,0,2.347,1.059h.011a3.181,3.181,0,0,0,2.347-1.059C39.659,106.351,45.778,107.431,46.453,113.4Z" class="colorfcf0d7 svgShape" style="fill: rgb(255, 249, 242);"/>
  <path d="M40.542,98.944a8.629,8.629,0,0,1-3.095-6.939V92A16.286,16.286,0,0,0,47.7,82.905c1.921.613,5.671-1.1,5.962-4.82.125-1.662-.187-2.773-.883-3.448a4.846,4.846,0,0,0,2.607-.863c1.247,4-.9,7.386,2.4,13.7,3.833,7.344,7.168,12.133,5.08,15.862-1.32,2.358-6.337,3.438-9.578-.478,0,0,.665,1.371-1.516,4.062-2.244-3.2-5.475-5.516-9.921-7.251A5.365,5.365,0,0,1,40.542,98.944Z" class="color934463 svgShape" style="fill: rgb(143, 103, 76);"/>
  <path fill="#fce4ca" d="M58.908,55.513a110.175,110.175,0,0,0-9.744-10.087c4.051,0,6.856-6.606,2.774-8.175s-14.5-4.467-17.919,2.192C30.6,32.784,20.172,35.682,16.1,37.251s-1.028,8.071,3.033,8.082a107.506,107.506,0,0,0-9.858,10.18c-5.183,5.848-3.739,11.842,1.891,15.041.561-13.712,7.333-26.966,21.087-27.288.177-.011.343-.011.519-.011,10.263,0,14.47,4.592,16.4,8.092a16.434,16.434,0,0,0,2.752,3.771c3.563,3.553,6.42,10.564,5.558,15.156h.01C62.71,67.012,63.946,61.2,58.908,55.513Z" class="colorfceaca svgShape"/>
  <path fill="#ffdbb6" d="M57.5,70.274h-.01c.862-4.592-1.995-11.6-5.558-15.156a16.434,16.434,0,0,1-2.752-3.771c-1.933-3.5-6.14-8.092-16.4-8.092-.176,0-.342,0-.519.011C18.5,43.588,11.727,56.842,11.166,70.554c-5.63-3.2-7.074-9.193-1.891-15.041a107.506,107.506,0,0,1,9.858-10.18h.011c4.466-3.854,9.245-6.565,13.067-4.82h3.761c3.854-1.766,8.694,1.018,13.192,4.913a110.175,110.175,0,0,1,9.744,10.087C63.946,61.2,62.71,67.012,57.5,70.274Z" class="colorffd3b6 svgShape"/>
  <path d="M51.927,55.118a16.434,16.434,0,0,1-2.752-3.771c-1.933-3.5-6.14-8.092-16.4-8.092-.176,0-.342,0-.519.011C18.5,43.588,11.727,56.842,11.166,70.554a45.688,45.688,0,0,0,.384,8.009C13.316,91.517,4.445,96,4.227,101.821c-.115,3.013,4.82,6.275,9.1,1.922a4.389,4.389,0,0,0,1.953,2.327l.447.343a20.907,20.907,0,0,1,9.536-6.742,5.084,5.084,0,0,0,1.309-.737c2.025-1.507,2.95-4.322,2.96-6.971v-.01a16.227,16.227,0,0,1-10.107-9.048c-1.88.6-5.516-1.028-5.931-4.581a1.957,1.957,0,0,1-.032-.239c-.176-2.191.416-3.428,1.673-3.978,3.365,1.3,7-1.361,8.819-12.736.53,2.213,3.958,6.119,8.591,6.462a16.8,16.8,0,0,0,7.728-.852,5.172,5.172,0,0,0,2.545-2.047,9.31,9.31,0,0,0,1.2,3.158c1.8,3.221,5.329,6.649,8.767,6.545a4.844,4.844,0,0,0,2.607-.863,5.138,5.138,0,0,0,2.1-3.5C58.347,65.682,55.49,58.671,51.927,55.118Z" class="color934463 svgShape" style="fill: rgb(156, 115, 88);"/>
  <path d="M33.671 83.981a3.382 3.382 0 0 1-2.842-1.538 1 1 0 0 1 1.676-1.091 1.444 1.444 0 0 0 2.338-.009 1 1 0 1 1 1.664 1.109A3.406 3.406 0 0 1 33.671 83.981zM33.67 79.023a1 1 0 0 1-.081-2 1.851 1.851 0 0 0 .6-.121 5.15 5.15 0 0 0-.539-1.231 6.644 6.644 0 0 1-.468-.99 1 1 0 1 1 1.9-.633 6.131 6.131 0 0 0 .333.675c.476.883 1.127 2.093.553 3.151a2.548 2.548 0 0 1-2.207 1.144zM23.177 69.148a1 1 0 0 1-.5-1.865 8.805 8.805 0 0 1 4.684-1.312 1 1 0 1 1 0 2 6.779 6.779 0 0 0-3.682 1.043A1 1 0 0 1 23.177 69.148zM44.38 68.65a1.031 1.031 0 0 1-.85.5h-.02a.926.926 0 0 1-.5-.14 6.773 6.773 0 0 0-2.65-.96 6.625 6.625 0 0 0-1.03-.08 1 1 0 0 1-1-1 .868.868 0 0 1 .1-.42 8.476 8.476 0 0 0 1.52-.49c.04-.02.09-.04.13-.06a8.945 8.945 0 0 1 3.93 1.28A1 1 0 0 1 44.38 68.65zM117.342 48.072a10.629 10.629 0 0 1-3.353-3.645c-.327-.481-.652-.958-.991-1.413a32.8 32.8 0 0 0-3.265-3.867 2.731 2.731 0 0 0 1.056-1.241 2.5 2.5 0 0 0-.363-2.543 4.105 4.105 0 0 0-3.092-1.349 4.281 4.281 0 0 0-2.226.6c-1.07-1.9-3-3.743-4.588-3.212A2.512 2.512 0 0 0 98.8 32.989a3.056 3.056 0 0 0 .11 1.985 7.934 7.934 0 0 0-1.553-.159c-9.122-.011-15.5 3.332-19.041 9.963a26.911 26.911 0 0 1-5.887 7.574 13.364 13.364 0 0 0-4.315 10.964A9.165 9.165 0 0 0 72.15 70.5a7.036 7.036 0 0 0 3.7 1.1 15.183 15.183 0 0 0 1.776-.237 9.929 9.929 0 0 0 6.64-8.037c.262-1.961 1.281-5.507 2.341-6.825a3.407 3.407 0 0 1 2.978-1.3 3.449 3.449 0 0 1 2.744 1.815c3.2 5.75 8.365 6.693 11.819 5.754a8.37 8.37 0 0 0 2.139-.917 1 1 0 0 0-1.045-1.7 6.364 6.364 0 0 1-1.624.694c-2.753.752-6.9-.057-9.54-4.8a5.423 5.423 0 0 0-9.029-.8c-1.406 1.749-2.482 5.7-2.766 7.814-.336 2.531-2.366 5.606-5.174 6.371-.128.033-.456.094-.47.1A4.782 4.782 0 0 1 73.2 68.8a7.2 7.2 0 0 1-3.092-5.664 11.324 11.324 0 0 1 3.655-9.292 28.894 28.894 0 0 0 6.322-8.128c3.193-5.989 8.818-8.9 17.2-8.9a8.98 8.98 0 0 1 2.229.352c.366.095.735.189 1.127.266h.005a1.115 1.115 0 0 0 1.021-.438 1.019 1.019 0 0 0-.016-1.115c-1.094-1.574-.982-2.161-.949-2.263.05-.149.277-.254.405-.3.459 0 2.063 1.4 2.694 3.214a2.929 2.929 0 0 1 .189 1.245 1 1 0 1 0 1.989.217 4.48 4.48 0 0 0-.108-1.478 2.407 2.407 0 0 1 1.446-.5 2.133 2.133 0 0 1 1.558.606.518.518 0 0 1 .07.522c-.134.328-.61.562-1.255.628-.109.008-.216.019-.333.019a1 1 0 0 0 0 2c.031 0 .06 0 .09-.005a24.844 24.844 0 0 1 3.952 4.424c.322.433.63.888.942 1.345a12.237 12.237 0 0 0 4.065 4.285 14.247 14.247 0 0 1 7.434 12.328 7.5 7.5 0 0 1-4.211 7.006 4.169 4.169 0 0 1-3.2.264c-2.549-.8-4.745-3.878-5.948-6.484A14.234 14.234 0 0 1 109.36 59.5a1 1 0 1 0-1.976.309 16.07 16.07 0 0 0 1.271 3.975c.673 1.456 3.175 6.3 7.167 7.559a6.261 6.261 0 0 0 1.881.3 6.366 6.366 0 0 0 2.79-.666 9.53 9.53 0 0 0 5.342-8.767A16.322 16.322 0 0 0 117.342 48.072z" class="color823a52 svgShape" style="fill: rgb(125, 117, 112);"/>
  <path d="M84.931 64.514a1 1 0 0 1-.508-1.862 9.443 9.443 0 0 1 5.1-1.432 1 1 0 0 1 0 2 7.491 7.491 0 0 0-4.088 1.155A1 1 0 0 1 84.931 64.514zM107.963 64.514a.983.983 0 0 1-.506-.139 7.5 7.5 0 0 0-4.089-1.155 1 1 0 0 1 0-2 9.448 9.448 0 0 1 5.1 1.432 1 1 0 0 1-.508 1.862zM96.446 80.808a3.6 3.6 0 0 1-3.027-1.647 1 1 0 1 1 1.676-1.09 1.678 1.678 0 0 0 2.716 0 1 1 0 1 1 1.675 1.092A3.616 3.616 0 0 1 96.446 80.808zM96.447 75.361l-.08 0a2.7 2.7 0 0 1-2.342-1.2c-.607-1.112.064-2.363.6-3.368A6.4 6.4 0 0 0 95 70.039a1 1 0 1 1 1.9.633 7.331 7.331 0 0 1-.5 1.068 4.412 4.412 0 0 0-.6 1.48 2.318 2.318 0 0 0 .736.144 1 1 0 0 1-.078 2z" class="color823a52 svgShape" style="fill: rgb(125, 117, 112);"/>
  <path d="M116.354 69.554a7.32 7.32 0 0 0-2.047-.255 1 1 0 1 0 0 2 5.436 5.436 0 0 1 1.5.178c.905.257 1.8.874 1.6 3.49a4.914 4.914 0 0 1-4.04 4.421 23.794 23.794 0 0 0 1.094-3.339 6.321 6.321 0 0 1 1.3-.523 1 1 0 1 0-.362-1.966 4.379 4.379 0 0 0-2.091.652 2.427 2.427 0 0 0-.677.934 22.665 22.665 0 0 1-1.659 4.7 16.136 16.136 0 0 1-10.051 8.681 17.1 17.1 0 0 1-8.858.022 16.129 16.129 0 0 1-10.129-8.709 48.891 48.891 0 0 1-1.662-4.669 3.954 3.954 0 0 0-.435-.784c-.517-.666-2.05-.772-2.339-.824a1 1 0 1 0-.361 1.966 6.312 6.312 0 0 1 1.3.525 24.354 24.354 0 0 0 1.1 3.338 4.931 4.931 0 0 1-4.048-4.423c-.195-2.555.66-3.2 1.545-3.473a5.157 5.157 0 0 1 .509-.108 5.886 5.886 0 0 1 1.046-.086 1 1 0 1 0 0-2 7.554 7.554 0 0 0-1.341.109 7.036 7.036 0 0 0-.7.146c-2.256.646-3.281 2.518-3.048 5.566a6.741 6.741 0 0 0 3.028 5.158 6.583 6.583 0 0 0 3.564 1.16c.148 0 .29-.016.432-.03a17.973 17.973 0 0 0 11.015 9.067 18.777 18.777 0 0 0 4.914.647 18.572 18.572 0 0 0 5.015-.672 17.99 17.99 0 0 0 10.926-9.042c.142.014.283.03.431.03a6.574 6.574 0 0 0 3.564-1.162 6.723 6.723 0 0 0 3.018-5.158C119.634 72.068 118.608 70.2 116.354 69.554zM31.771 102.22a.5.5 0 0 1-.182-.034 12.9 12.9 0 0 1-5.212-3.066l-.82-.8a.5.5 0 1 1 .693-.72l.815.8a11.857 11.857 0 0 0 4.887 2.859.5.5 0 0 1-.181.966zM35.571 102.22a.5.5 0 0 1-.181-.966A11.839 11.839 0 0 0 40.271 98.4l.791-.769a.5.5 0 1 1 .693.721l-.8.775a12.736 12.736 0 0 1-5.2 3.059A.506.506 0 0 1 35.571 102.22z" class="color823a52 svgShape" style="fill: rgb(125, 117, 112);"/>
  <path d="M60.35 90.09c-.55-1.01-1.12-2.07-1.7-3.19a15.766 15.766 0 0 1-1.84-8.65 16.765 16.765 0 0 0-.32-4.16 6.194 6.194 0 0 0 1.84-3.21 9.994 9.994 0 0 0 4.64-6.8c.44-3.04-.72-6.2-3.35-9.17l-.63-.71c-2.07-2.33-4.79-5.4-7.72-8.12a6.75 6.75 0 0 0 3.57-4.74 4.1 4.1 0 0 0-2.54-4.86c-2.31-.88-13.41-4.74-18.17 1.27-4.77-6.01-15.87-2.15-18.18-1.27a3.949 3.949 0 0 0-2.48 4.66 6.969 6.969 0 0 0 3.76 4.85 115.1 115.1 0 0 0-7.94 8.34l-.52.58c-2.68 3.03-3.83 6.26-3.32 9.35a10.143 10.143 0 0 0 4.94 6.82 45.9 45.9 0 0 0 .4 7.55c1.05 7.73-1.8 12.16-4.31 16.06-1.55 2.4-2.89 4.48-2.98 6.9a5.079 5.079 0 0 0 3.24 4.56 6.4 6.4 0 0 0 6.51-1.02 4.586 4.586 0 0 0 1.81 1.62.935.935 0 0 0 .43.1 1 1 0 0 0 .43-1.9 3.366 3.366 0 0 1-1.42-1.73 1.032 1.032 0 0 0-.73-.66 1 1 0 0 0-.93.28c-2.35 2.38-4.49 1.82-5.3 1.47a3.1 3.1 0 0 1-2.04-2.65c.07-1.87 1.27-3.73 2.66-5.89 2.57-3.98 5.77-8.94 4.61-17.41a44.506 44.506 0 0 1-.37-7.78c.48-11.88 6.01-25.85 20.03-26.18.15-.01.29-.01.46-.01 7.48 0 12.67 2.53 15.43 7.53a17.221 17.221 0 0 0 2.91 3.97c3.55 3.54 6 10.17 5.25 14.19a4.16 4.16 0 0 1-1.67 2.83 7.258 7.258 0 0 1-2.18.69c-2.85 0-6.02-3-7.7-6.01a8.808 8.808 0 0 1-1.01-2.52 5.956 5.956 0 0 0 .44-3.85 1 1 0 1 0-1.96.37 3.96 3.96 0 0 1-.38 2.84 8.069 8.069 0 0 1-2.07 1.63 8.476 8.476 0 0 1-1.52.49 19.579 19.579 0 0 1-5.7.28c-4.14-.31-7.22-3.9-7.64-5.66a.892.892 0 0 0-.82-.75 1.054 1.054 0 0 0-1.14.82v.01c-1.3 8.12-3.38 10.87-4.89 11.74a2.8 2.8 0 0 1-2.54.14 5.132 5.132 0 0 1-1.4-.81 1 1 0 0 0-1.24 1.57A7.246 7.246 0 0 0 14.99 75a5.281 5.281 0 0 0 1.88.37 4.727 4.727 0 0 0 2.37-.65c2.37-1.36 4.16-4.84 5.34-10.35a11.725 11.725 0 0 0 8 4.46c.77.05 1.5.08 2.2.08a15.768 15.768 0 0 0 5.58-.86 14.628 14.628 0 0 0 2.04-1.12 12.836 12.836 0 0 0 .79 1.64c.11.19.22.39.34.58 2.02 3.29 5.63 6.55 9.29 6.44a5.815 5.815 0 0 0 1.86-.38 18.351 18.351 0 0 1 .13 3.01 17.693 17.693 0 0 0 2.06 9.6c.59 1.13 1.17 2.2 1.72 3.22 2.81 5.19 4.84 8.95 3.35 11.61a3.8 3.8 0 0 1-2.96 1.57 5.666 5.666 0 0 1-4.92-2.2 1.024 1.024 0 0 0-1.33-.23.964.964 0 0 0-.37 1.24c0 .01.29 1.01-1.36 3.04a1 1 0 0 0 .15 1.41.988.988 0 0 0 .63.22 1.02 1.02 0 0 0 .78-.37 9.072 9.072 0 0 0 1.52-2.55 7.453 7.453 0 0 0 5.08 1.43 5.689 5.689 0 0 0 4.52-2.59C65.71 100.01 63.46 95.85 60.35 90.09zM52.64 54.47a15.122 15.122 0 0 1-2.57-3.52c-3.13-5.68-8.92-8.56-17.18-8.56-.2 0-.39 0-.54.01-13.77.32-20.77 13.18-21.84 26.33a7.761 7.761 0 0 1-3.09-4.8c-.41-2.47.58-5.13 2.85-7.69l.52-.58a100.764 100.764 0 0 1 9.11-9.38.55.55 0 0 0 .09-.07c5.07-4.37 9.08-5.94 11.92-4.64a1 1 0 1 0 .83-1.82c-3.59-1.64-8.09-.11-13.72 4.66a4.622 4.622 0 0 1-3.58-3.64 1.97 1.97 0 0 1 1.23-2.42c2.18-.84 12.986-4.566 16.57 1.7a.922.922 0 0 0 .89.54 1.026 1.026 0 0 0 .89-.54c3.26-6.435 14.38-2.54 16.57-1.7a2.129 2.129 0 0 1 1.28 2.63 4.4 4.4 0 0 1-3.37 3.53c-5.7-4.85-10.23-6.42-13.85-4.76a1.006 1.006 0 0 0-.49 1.33 1 1 0 0 0 1.32.49c2.86-1.31 6.91.28 12.05 4.73a102.631 102.631 0 0 1 8.96 9.22l.64.72c2.22 2.51 3.21 5.12 2.86 7.55a7.291 7.291 0 0 1-2.39 4.34A22.382 22.382 0 0 0 52.64 54.47zM120.508 107.937c-2.418-4.446-5.531-7.394-11.547-10.339a27.754 27.754 0 0 1-4.491-2.766c.088-.126.178-.261.282-.434a.993.993 0 0 0-1.652-1.1 4.588 4.588 0 0 1-.921-2.53c0-.3.01-1.271.01-1.272l-2-.021s-.01.983-.01 1.3a6.8 6.8 0 0 0 1.592 4.089 7.833 7.833 0 0 1-10.66-.012 6.955 6.955 0 0 0 1.616-4.083c0-.328.033-1.089.033-1.092l-2-.086s-.035.824-.035 1.154a4.774 4.774 0 0 1-.973 2.583.988.988 0 0 0-1.161-.1 1 1 0 0 0-.328 1.375c.055.091.1.164.146.231-.245.225-.517.458-.828.708A22.821 22.821 0 0 1 83.942 97.6c-6.123 2.714-9.128 5.893-11.544 10.337a3.783 3.783 0 0 0-.133 3.472 4.585 4.585 0 0 0 3.254 2.488 68.832 68.832 0 0 0 9.312 1.122c4.965.319 9.777.353 11.615.353s6.662-.034 11.629-.353a68.736 68.736 0 0 0 9.309-1.122 4.585 4.585 0 0 0 3.246-2.482A3.8 3.8 0 0 0 120.508 107.937zm-44.576 4a2.588 2.588 0 0 1-1.853-1.37 1.8 1.8 0 0 1 .076-1.677c2.145-3.946 4.545-6.871 9.606-9.055a82.018 82.018 0 0 0 .035 13.1A61.729 61.729 0 0 1 75.932 111.939zm27.2-15.619c.186.169.391.333.594.5.01 1.846-.949 3.623-2.23 4-1.067.316-2.259-.424-3.369-2.02A9.873 9.873 0 0 0 103.133 96.32zm-13.375 0a9.9 9.9 0 0 0 5.008 2.477c-1.107 1.594-2.3 2.329-3.358 2.022-1.28-.372-2.24-2.15-2.23-4C89.385 96.647 89.581 96.478 89.758 96.316zm17.332 16.758c-4.6.267-8.928.3-10.644.3s-6.037-.03-10.632-.3a79.467 79.467 0 0 1 .05-14.139c.482-.239.961-.5 1.43-.784a5.631 5.631 0 0 0 3.556 4.585 3.662 3.662 0 0 0 1.033.145c1.173 0 2.881-.544 4.565-2.993 1.687 2.448 3.4 2.993 4.572 2.993a3.664 3.664 0 0 0 1.037-.146 5.631 5.631 0 0 0 3.553-4.581c.455.277.937.533 1.431.778A79.4 79.4 0 0 1 107.09 113.074zm11.726-2.5a2.585 2.585 0 0 1-1.847 1.369 61.63 61.63 0 0 1-7.86 1 82.232 82.232 0 0 0 .036-13.1c5.06 2.184 7.459 5.109 9.6 9.051A1.815 1.815 0 0 1 118.816 110.571zM89.994 67.766v1.593a1.6 1.6 0 0 1-3.2 0V67.766a1.6 1.6 0 1 1 3.2 0zM102.9 67.766v1.593a1.6 1.6 0 0 0 3.2 0V67.766a1.6 1.6 0 1 0-3.2 0z" class="color823a52 svgShape" style="fill: rgb(125, 117, 112);"/>
  <circle cx="33.661" cy="102.867" r=".857" class="color823a52 svgShape" style="fill: rgb(201, 81, 81);"/>
  <path d="M28.181 72.115v1.544a1.539 1.539 0 0 1-3.078 0V72.115a1.539 1.539 0 0 1 3.078 0zM39.162 72.115v1.544a1.539 1.539 0 0 0 3.077 0V72.115a1.539 1.539 0 0 0-3.077 0z" class="color823a52 svgShape" style="fill: rgb(125, 117, 112);"/>
  <path d="M 48.73 84.011 C 48.811 84.016 48.889 84.028 48.971 84.028 C 49.997 84.003 50.994 83.677 51.836 83.09 C 53.492 81.948 54.532 80.107 54.656 78.099 C 54.802 76.168 54.416 74.786 53.478 73.876 C 52.925 73.34 51.999 73.603 51.811 74.35 C 51.724 74.696 51.828 75.063 52.085 75.312 C 52.641 76.068 52.851 77.025 52.662 77.945 C 52.584 79.343 51.868 80.628 50.72 81.43 C 50.399 81.644 50.048 81.806 49.677 81.912 C 50.045 80.959 50.345 79.982 50.577 78.988 C 50.584 78.96 50.589 78.93 50.596 78.902 C 50.804 78.745 51.039 78.627 51.289 78.553 C 52.046 78.413 52.368 77.506 51.868 76.921 C 51.637 76.649 51.277 76.521 50.926 76.586 C 50.534 76.659 49.126 76.996 48.791 77.796 C 48.719 78.033 48.665 78.276 48.632 78.522 C 48.297 79.993 47.794 81.421 47.132 82.777 C 45.369 86.58 42.057 89.442 38.038 90.634 C 36.671 91.064 35.253 91.312 33.821 91.371 C 32.507 91.374 31.199 91.199 29.933 90.85 C 25.886 89.59 22.578 86.646 20.857 82.772 C 20.195 81.425 19.689 80.006 19.351 78.543 C 19.317 78.291 19.265 78.041 19.197 77.796 C 18.83 76.874 17.068 76.773 16.697 76.702 C 15.94 76.562 15.315 77.295 15.573 78.02 C 15.693 78.357 15.983 78.604 16.334 78.669 C 16.702 78.757 17.063 78.874 17.412 79.021 C 17.645 79.995 17.941 80.952 18.299 81.887 C 17.722 81.793 17.171 81.579 16.681 81.26 C 15.564 80.549 14.833 79.367 14.694 78.05 L 14.684 77.943 C 14.512 75.809 15.164 75.243 15.75 74.983 C 16.465 74.697 16.601 73.744 15.996 73.269 C 15.698 73.034 15.293 72.989 14.95 73.151 C 13.25 73.896 12.487 75.563 12.7 78.193 C 12.706 78.272 12.717 78.35 12.732 78.428 C 12.958 80.288 14.011 81.946 15.599 82.941 C 16.539 83.566 17.636 83.913 18.764 83.941 C 18.911 83.939 19.057 83.928 19.203 83.91 C 21.09 87.909 24.479 91.002 28.633 92.517 C 28.597 94.611 27.677 96.592 26.1 97.971 C 25.783 98.217 25.431 98.414 25.056 98.557 C 21.156 99.913 17.72 102.347 15.147 105.576 C 14.552 106.341 14.022 107.155 13.561 108.008 C 12.998 109.003 12.951 110.209 13.437 111.244 C 14.026 112.451 15.148 113.311 16.466 113.566 C 17.483 113.777 18.641 113.966 19.907 114.136 C 24.473 114.666 29.066 114.924 33.662 114.909 C 36.212 114.909 44.988 114.809 50.87 113.565 C 52.182 113.31 53.3 112.455 53.888 111.255 C 54.377 110.219 54.334 109.011 53.775 108.011 C 53.422 107.359 53.03 106.729 52.599 106.125 C 50.299 102.845 46.923 100.369 42.279 98.557 C 41.893 98.409 41.531 98.207 41.202 97.957 C 39.592 96.619 38.633 94.655 38.57 92.562 L 38.578 92.562 C 43.009 91.257 46.691 88.155 48.73 84.011 Z M 40.005 99.561 C 40.478 99.917 40.998 100.207 41.551 100.42 C 45.875 102.107 48.865 104.285 50.964 107.277 C 51.348 107.816 51.698 108.378 52.014 108.96 C 52.271 109.405 52.293 109.948 52.073 110.412 C 51.751 111.043 51.153 111.487 50.456 111.612 C 49.484 111.819 48.423 111.99 47.326 112.136 C 46.94 109.715 45.184 107.739 42.826 107.069 C 39.761 106.269 36.274 107.874 33.94 111.142 C 33.509 111.78 33.93 112.645 34.697 112.7 C 35.036 112.724 35.363 112.575 35.567 112.304 C 37.417 109.715 40.067 108.42 42.324 109.004 C 43.888 109.458 45.056 110.764 45.333 112.369 C 40.525 112.86 35.478 112.912 33.659 112.912 C 29.503 112.921 25.348 112.711 21.214 112.284 C 21.51 110.713 22.665 109.443 24.2 109 C 26.46 108.416 29.108 109.711 30.957 112.3 C 31.42 112.915 32.375 112.797 32.676 112.089 C 32.809 111.777 32.774 111.419 32.584 111.138 C 30.251 107.87 26.764 106.269 23.698 107.065 C 21.379 107.718 19.64 109.641 19.222 112.013 C 18.38 111.888 17.578 111.755 16.874 111.608 C 16.175 111.484 15.575 111.04 15.251 110.408 C 15.034 109.946 15.059 109.407 15.316 108.966 C 15.728 108.205 16.202 107.479 16.733 106.796 C 19.087 103.859 22.224 101.65 25.782 100.422 C 26.333 100.212 26.849 99.921 27.315 99.56 C 29.264 97.943 30.454 95.589 30.599 93.06 C 31.659 93.271 32.737 93.376 33.818 93.374 C 34.753 93.36 35.683 93.251 36.596 93.049 C 36.782 95.598 38.016 97.956 40.005 99.561 L 40.005 99.561 Z M 78.677 16.189 C 76.987 13.987 74.352 12.718 71.577 12.77 C 69.83 12.738 68.122 13.295 66.73 14.351 C 65.339 13.295 63.633 12.738 61.887 12.77 C 59.113 12.721 56.479 13.989 54.787 16.188 C 53.007 18.725 52.518 21.949 53.465 24.9 C 54.817 29.3 58.901 33.015 64.965 35.36 C 66.102 35.803 67.365 35.803 68.502 35.36 C 74.555 33.01 78.639 29.3 79.991 24.9 C 80.94 21.951 80.454 18.727 78.677 16.189 Z M 67.769 33.49 C 67.439 33.621 67.087 33.689 66.732 33.69 C 66.374 33.688 66.02 33.621 65.687 33.49 C 55.393 29.509 53.087 22.154 56.423 17.328 C 57.742 15.666 59.764 14.719 61.885 14.77 C 63.867 14.659 65.742 15.677 66.728 17.4 C 67.715 15.675 69.591 14.656 71.575 14.766 C 73.695 14.713 75.717 15.66 77.033 17.324 C 78.574 19.552 78.913 22.318 77.819 25.042 C 76.542 28.222 73.314 31.346 67.769 33.49 Z" class="color823a52 svgShape" style="fill: rgb(125, 117, 112); paint-order: fill;"/>
</svg>